<svg width="480.131884765625px" height="150.79999999999998px" xmlns="http://www.w3.org/2000/svg" viewBox="9.934057617187506 -0.3999999999999915 480.131884765625 150.79999999999998" style="background: rgba(0, 0, 0, 0);" preserveAspectRatio="xMidYMid"><defs><filter id="editing-extrude-glow"><feFlood flood-color="#333333" result="flood-1"></feFlood><feMorphology operator="erode" radius="1" in="SourceAlpha" result="erode"></feMorphology><feComposite operator="in" in="flood-1" in2="erode" result="comp1"></feComposite><feConvolveMatrix order="3,3" divisor="1" in="comp1" result="convolve" kernelMatrix="0 0 0 1 1 1 0 0 0"></feConvolveMatrix><feOffset dx="-3" dy="0" in="convolve" result="extrude"></feOffset><feComposite operator="in" in="flood-1" in2="extrude" result="comp-extrude"></feComposite><feFlood flood-color="#000000" result="flood-2"></feFlood><feComposite operator="in" in="flood-2" in2="SourceAlpha" result="comp2"></feComposite><feMorphology operator="dilate" radius="1" in="comp2" result="dilate"></feMorphology><feOffset dx="-4.5" dy="0" in="dilate" result="offset"></feOffset><feGaussianBlur in="offset" stdDeviation="5.8" result="blur"></feGaussianBlur><feComponentTransfer in="blur" result="shadow"><feFuncA type="linear" slope="0.8" intercept="-0.2"></feFuncA></feComponentTransfer><feMerge><feMergeNode in="shadow"></feMergeNode><feMergeNode in="comp-extrude"></feMergeNode><feMergeNode in="SourceGraphic"></feMergeNode></feMerge></filter></defs><g filter="url(#editing-extrude-glow)"><g transform="translate(80.19129240512848, 106.55499839782715)"><path d="M15.36 0.51L15.36 0.51Q8.13 0.51 4.99-3.46L4.99-3.46L4.99-3.46Q1.86-7.42 1.86-15.30L1.86-15.30L1.86-34.11L1.86-34.11Q1.86-40.58 5.57-43.97L5.57-43.97L5.57-43.97Q9.28-47.36 15.94-47.36L15.94-47.36L15.94-47.36Q29.44-47.36 29.44-34.11L29.44-34.11L29.44-30.72L29.44-30.72Q29.44-25.60 29.31-22.40L29.31-22.40L13.06-22.40L13.06-13.31L13.06-13.31Q13.06-10.88 13.57-9.50L13.57-9.50L13.57-9.50Q14.08-8.13 15.74-8.13L15.74-8.13L15.74-8.13Q17.02-8.13 17.57-8.90L17.57-8.90L17.57-8.90Q18.11-9.66 18.21-10.66L18.21-10.66L18.21-10.66Q18.30-11.65 18.30-13.57L18.30-13.57L18.30-18.11L29.44-18.11L29.44-15.42L29.44-15.42Q29.44-7.23 26.27-3.36L26.27-3.36L26.27-3.36Q23.10 0.51 15.36 0.51L15.36 0.51ZM12.99-27.97L18.30-27.97L18.30-33.98L18.30-33.98Q18.30-39.04 15.81-39.04L15.81-39.04L15.81-39.04Q12.99-39.04 12.99-33.98L12.99-33.98L12.99-27.97ZM51.58 0.51L51.58 0.51Q46.98 0.51 44.99-4.99L44.99-4.99L44.99 0L33.47 0L33.47-55.30L44.99-55.30L44.99-44.61L44.99-44.61Q47.68-47.36 51.26-47.36L51.26-47.36L51.26-47.36Q56.70-47.36 59.07-44.13L59.07-44.13L59.07-44.13Q61.44-40.90 61.44-34.82L61.44-34.82L61.44-12.22L61.44-12.22Q61.44-6.46 59.01-2.98L59.01-2.98L59.01-2.98Q56.58 0.51 51.58 0.51L51.58 0.51ZM47.81-8.19L47.81-8.19Q48.96-8.19 49.44-8.93L49.44-8.93L49.44-8.93Q49.92-9.66 50.02-10.78L50.02-10.78L50.02-10.78Q50.11-11.90 50.11-14.27L50.11-14.27L50.11-33.79L50.11-33.79Q50.11-36.29 49.66-37.50L49.66-37.50L49.66-37.50Q49.22-38.72 47.74-38.72L47.74-38.72L47.74-38.72Q46.14-38.72 45.57-37.50L45.57-37.50L45.57-37.50Q44.99-36.29 44.99-33.92L44.99-33.92L44.99-14.27L44.99-14.27Q44.99-11.20 45.50-9.70L45.50-9.70L45.50-9.70Q46.02-8.19 47.81-8.19L47.81-8.19ZM64.64 7.81L64.64 0.70L70.02 0.70L70.02 0.70Q71.17 0.70 71.17-0.26L71.17-0.26L71.17-0.26Q71.17-0.70 71.10-0.96L71.10-0.96L63.81-46.85L74.50-46.85L76.61-24L77.63-12.35L78.85-24L81.34-46.85L92.10-46.85L83.39 2.43L83.39 2.43Q82.94 5.18 81.57 6.50L81.57 6.50L81.57 6.50Q80.19 7.81 77.25 7.81L77.25 7.81L64.64 7.81ZM104.70 0.51L104.70 0.51Q100.29 0.51 98.62-1.34L98.62-1.34L98.62-1.34Q96.96-3.20 96.96-7.30L96.96-7.30L96.96-36.54L93.82-36.54L93.82-45.06L96.96-45.06L96.96-54.98L107.84-54.98L107.84-45.06L111.04-45.06L111.04-36.54L107.84-36.54L107.84-10.24L107.84-10.24Q107.84-9.02 108.03-8.45L108.03-8.45L108.03-8.45Q108.22-7.87 109.06-7.87L109.06-7.87L109.06-7.87Q109.70-7.87 110.27-7.94L110.27-7.94L110.27-7.94Q110.85-8 111.04-8L111.04-8L111.04-0.32L111.04-0.32Q110.08-0.06 108.26 0.22L108.26 0.22L108.26 0.22Q106.43 0.51 104.70 0.51L104.70 0.51ZM127.68 0.51L127.68 0.51Q120.45 0.51 117.31-3.46L117.31-3.46L117.31-3.46Q114.18-7.42 114.18-15.30L114.18-15.30L114.18-34.11L114.18-34.11Q114.18-40.58 117.89-43.97L117.89-43.97L117.89-43.97Q121.60-47.36 128.26-47.36L128.26-47.36L128.26-47.36Q141.76-47.36 141.76-34.11L141.76-34.11L141.76-30.72L141.76-30.72Q141.76-25.60 141.63-22.40L141.63-22.40L125.38-22.40L125.38-13.31L125.38-13.31Q125.38-10.88 125.89-9.50L125.89-9.50L125.89-9.50Q126.40-8.13 128.06-8.13L128.06-8.13L128.06-8.13Q129.34-8.13 129.89-8.90L129.89-8.90L129.89-8.90Q130.43-9.66 130.53-10.66L130.53-10.66L130.53-10.66Q130.62-11.65 130.62-13.57L130.62-13.57L130.62-18.11L141.76-18.11L141.76-15.42L141.76-15.42Q141.76-7.23 138.59-3.36L138.59-3.36L138.59-3.36Q135.42 0.51 127.68 0.51L127.68 0.51ZM125.31-27.97L130.62-27.97L130.62-33.98L130.62-33.98Q130.62-39.04 128.13-39.04L128.13-39.04L128.13-39.04Q125.31-39.04 125.31-33.98L125.31-33.98L125.31-27.97ZM168.32 0L145.98 0L145.98-54.98L156.99-54.98L156.99-9.34L168.32-9.34L168.32 0ZM184.32 0.51L184.32 0.51Q177.09 0.51 173.95-3.46L173.95-3.46L173.95-3.46Q170.82-7.42 170.82-15.30L170.82-15.30L170.82-34.11L170.82-34.11Q170.82-40.58 174.53-43.97L174.53-43.97L174.53-43.97Q178.24-47.36 184.90-47.36L184.90-47.36L184.90-47.36Q198.40-47.36 198.40-34.11L198.40-34.11L198.40-30.72L198.40-30.72Q198.40-25.60 198.27-22.40L198.27-22.40L182.02-22.40L182.02-13.31L182.02-13.31Q182.02-10.88 182.53-9.50L182.53-9.50L182.53-9.50Q183.04-8.13 184.70-8.13L184.70-8.13L184.70-8.13Q185.98-8.13 186.53-8.90L186.53-8.90L186.53-8.90Q187.07-9.66 187.17-10.66L187.17-10.66L187.17-10.66Q187.26-11.65 187.26-13.57L187.26-13.57L187.26-18.11L198.40-18.11L198.40-15.42L198.40-15.42Q198.40-7.23 195.23-3.36L195.23-3.36L195.23-3.36Q192.06 0.51 184.32 0.51L184.32 0.51ZM181.95-27.97L187.26-27.97L187.26-33.98L187.26-33.98Q187.26-39.04 184.77-39.04L184.77-39.04L184.77-39.04Q181.95-39.04 181.95-33.98L181.95-33.98L181.95-27.97ZM210.94 0.51L210.94 0.51Q205.50 0.51 203.49-3.10L203.49-3.10L203.49-3.10Q201.47-6.72 201.47-13.44L201.47-13.44L201.47-13.44Q201.47-18.94 202.91-21.89L202.91-21.89L202.91-21.89Q204.35-24.83 206.91-26.21L206.91-26.21L206.91-26.21Q209.47-27.58 214.72-29.25L214.72-29.25L217.79-30.27L217.79-30.40L217.79-35.07L217.79-35.07Q217.79-36.93 217.06-37.92L217.06-37.92L217.06-37.92Q216.32-38.91 215.30-38.91L215.30-38.91L215.30-38.91Q214.40-38.91 213.73-38.08L213.73-38.08L213.73-38.08Q213.06-37.25 213.06-35.84L213.06-35.84L213.06-33.02L202.18-33.02L202.18-34.56L202.18-34.56Q202.18-41.47 205.41-44.42L205.41-44.42L205.41-44.42Q208.64-47.36 215.94-47.36L215.94-47.36L215.94-47.36Q221.76-47.36 225.41-44.32L225.41-44.32L225.41-44.32Q229.06-41.28 229.06-35.71L229.06-35.71L229.06 0L217.92 0L217.92-5.57L217.92-5.57Q217.09-2.69 215.26-1.09L215.26-1.09L215.26-1.09Q213.44 0.51 210.94 0.51L210.94 0.51ZM215.36-8.19L215.36-8.19Q216.64-8.19 217.18-9.25L217.18-9.25L217.18-9.25Q217.73-10.30 217.73-11.84L217.73-11.84L217.73-24.90L217.73-24.90Q215.23-23.94 214.05-22.46L214.05-22.46L214.05-22.46Q212.86-20.99 212.86-18.37L212.86-18.37L212.86-12.35L212.86-12.35Q212.86-8.19 215.36-8.19L215.36-8.19ZM233.34 0L233.34-46.85L244.54-46.85L244.54-41.66L244.54-41.66Q245.38-44.42 247.46-45.92L247.46-45.92L247.46-45.92Q249.54-47.42 252.61-47.42L252.61-47.42L252.61-38.08L252.61-38.08Q250.24-38.08 247.39-37.41L247.39-37.41L247.39-37.41Q244.54-36.74 244.54-35.84L244.54-35.84L244.54 0L233.34 0ZM255.36 0L255.36-46.85L266.56-46.85L266.56-40.90L266.56-40.90Q267.26-43.78 268.99-45.57L268.99-45.57L268.99-45.57Q270.72-47.36 273.60-47.36L273.60-47.36L273.60-47.36Q278.34-47.36 280.61-44.45L280.61-44.45L280.61-44.45Q282.88-41.54 282.88-36.16L282.88-36.16L282.88 0L271.87 0L271.87-35.01L271.87-35.01Q271.87-36.54 271.26-37.63L271.26-37.63L271.26-37.63Q270.66-38.72 269.38-38.72L269.38-38.72L269.38-38.72Q267.65-38.72 267.10-37.15L267.10-37.15L267.10-37.15Q266.56-35.58 266.56-32.96L266.56-32.96L266.56 0L255.36 0ZM300.42 0.51L300.42 0.51Q293.18 0.51 290.05-3.46L290.05-3.46L290.05-3.46Q286.91-7.42 286.91-15.30L286.91-15.30L286.91-34.11L286.91-34.11Q286.91-40.58 290.62-43.97L290.62-43.97L290.62-43.97Q294.34-47.36 300.99-47.36L300.99-47.36L300.99-47.36Q314.50-47.36 314.50-34.11L314.50-34.11L314.50-30.72L314.50-30.72Q314.50-25.60 314.37-22.40L314.37-22.40L298.11-22.40L298.11-13.31L298.11-13.31Q298.11-10.88 298.62-9.50L298.62-9.50L298.62-9.50Q299.14-8.13 300.80-8.13L300.80-8.13L300.80-8.13Q302.08-8.13 302.62-8.90L302.62-8.90L302.62-8.90Q303.17-9.66 303.26-10.66L303.26-10.66L303.26-10.66Q303.36-11.65 303.36-13.57L303.36-13.57L303.36-18.11L314.50-18.11L314.50-15.42L314.50-15.42Q314.50-7.23 311.33-3.36L311.33-3.36L311.33-3.36Q308.16 0.51 300.42 0.51L300.42 0.51ZM298.05-27.97L303.36-27.97L303.36-33.98L303.36-33.98Q303.36-39.04 300.86-39.04L300.86-39.04L300.86-39.04Q298.05-39.04 298.05-33.98L298.05-33.98L298.05-27.97ZM318.53 0L318.53-46.85L329.73-46.85L329.73-41.66L329.73-41.66Q330.56-44.42 332.64-45.92L332.64-45.92L332.64-45.92Q334.72-47.42 337.79-47.42L337.79-47.42L337.79-38.08L337.79-38.08Q335.42-38.08 332.58-37.41L332.58-37.41L332.58-37.41Q329.73-36.74 329.73-35.84L329.73-35.84L329.73 0L318.53 0Z" fill="#3788d8"></path></g></g><style>text {
  font-size: 120px;
  font-family: Arial Black;
  dominant-baseline: central;
  text-anchor: middle;
}</style></svg>